<svg width="755" height="289" viewBox="0 0 755 289" fill="none" xmlns="http://www.w3.org/2000/svg">
<path d="M681.005 288.82C676.779 288.022 672.472 287.505 668.335 286.382C641.082 278.994 621.734 256.491 618.38 228.448C616.326 211.257 619.798 195.439 630.289 181.41C630.643 180.945 631.064 180.538 631.899 179.6L630.222 192.972C628.833 204.054 627.356 215.061 629.055 226.217C630.296 234.343 632.749 242.056 638.356 248.313C650.915 262.35 672.258 260.798 683.421 245.151C686.578 240.707 688.477 235.492 688.917 230.058C689.072 228.433 688.725 227.399 686.782 227.347C685.704 227.264 684.645 227.015 683.643 226.608C680.466 225.493 678.988 223.247 679.284 220.085C679.601 216.546 681.463 214.396 684.729 213.791C688.223 213.14 690.639 214.337 692.05 217.551C692.556 218.594 692.902 219.707 693.077 220.853C693.283 222.678 694.229 223.01 695.884 222.959C709.226 222.545 721.578 211.028 723.218 197.375C724.755 184.609 718.897 174.045 706.965 168.135C696.069 162.742 684.44 161.825 672.605 162.963C664.169 163.754 655.776 165.179 647.369 166.28C646.948 166.332 646.512 166.28 645.67 166.28C648.622 162.774 652.283 159.931 656.411 157.94C664.449 153.884 673.086 152.362 681.966 152.273C696.054 152.125 709.514 155.029 721.637 162.35C740.269 173.601 750.981 190.349 753.722 211.848C757.601 242.277 741.762 270.21 713.903 282.829C707.275 285.823 700.194 287.688 692.951 288.347C692.354 288.443 691.766 288.586 691.193 288.776L681.005 288.82Z" fill="white"/>
<path d="M573.92 122.966C571.837 124.495 569.85 126.172 567.656 127.51C556.574 134.284 544.392 137.025 531.552 136.449C508.31 135.4 489.967 125.138 476.883 105.901C451.706 68.7184 470.463 16.1032 513.452 3.07129C552.873 -8.882 593.35 15.1945 601.048 55.5239C604.343 72.8037 601.905 89.3596 591.939 104.327C591.138 105.543 590.121 106.602 588.939 107.452C589.117 104.918 589.316 102.377 589.457 99.8353C590.033 89.4261 590.801 79.0316 591.089 68.6149C591.311 60.3481 588.954 52.5098 585.031 45.3215C575.006 26.9779 552.725 26.9705 539.723 39.8546C534.692 44.8265 532.032 50.9362 531.286 57.9471C531.15 58.5444 531.239 59.1708 531.537 59.7064C531.834 60.2421 532.318 60.6494 532.896 60.8505C534.706 61.7074 536.398 62.8156 538.179 63.7317C540.262 64.8103 540.86 66.5611 540.69 68.7479C540.395 72.4418 538.208 74.7172 534.736 74.9905C530.732 75.3008 528.272 73.6164 527.348 69.9225C526.196 65.3865 526.196 65.3865 521.438 66.0809C509.389 67.8466 499.275 77.7757 496.97 90.1574C494.754 101.978 500.102 113.163 511.007 119.457C518.823 123.986 527.356 125.774 536.28 126.106C547.458 126.49 558.443 124.695 569.443 123.107L573.706 122.508L573.92 122.966Z" fill="white"/>
<path d="M648.285 123.609L662.964 124.953C672.738 125.855 682.512 126.889 692.315 125.633C703.338 124.222 712.897 119.841 719.295 110.4C729.498 95.2623 721.792 73.3873 704.158 67.189C701.432 66.2286 698.462 65.9036 695.595 65.3643C694.022 65.0688 692.892 65.4899 692.788 67.4181C692.687 68.3408 692.453 69.2441 692.094 70.0998C690.683 74.0374 687.883 75.4707 683.901 74.3329C680.598 73.3947 679.003 70.4175 679.801 66.6054C680.34 64.0419 682.017 62.6161 684.551 62.1728C686.28 61.8551 688.045 61.7148 689.789 61.4931C687.897 47.9367 681.869 35.7692 667.707 31.802C653.722 27.8791 639.966 32.8806 633.029 48.151C629.044 56.9154 627.327 66.5412 628.035 76.1429C628.685 85.7469 630.074 95.3066 631.145 104.881C631.241 105.708 631.396 106.521 631.566 107.57C615.816 89.9431 610.327 49.8058 636.147 22.1241C642.282 15.514 649.667 10.1865 657.875 6.45006C666.083 2.71366 674.951 0.642597 683.965 0.356768C692.979 0.0709385 701.96 1.57603 710.388 4.78489C718.816 7.99375 726.524 12.8426 733.066 19.0508C760.4 45.0333 761.087 88.6798 734.44 116.007C707.615 143.541 666.229 139.707 648.285 123.609Z" fill="white"/>
<path d="M0.679688 220.151V174.828C0.827441 174.702 0.945645 174.525 1.05646 174.525C9.30852 174.577 17.5753 174.392 25.8052 174.806C31.2795 175.086 34.8699 178.669 36.2441 183.863C37.3153 187.874 35.8377 191.11 33.289 194.058L31.5159 196.104C32.8974 197.582 34.2198 198.949 35.5201 200.345C38.8962 203.957 40.3147 208.109 38.4751 212.904C36.6356 217.699 32.7349 219.996 27.8369 220.159C19.1268 220.432 10.4019 220.366 1.6918 220.425C1.34512 220.372 1.00555 220.281 0.679688 220.151ZM8.56236 201.187V213.621C14.0588 213.621 19.3779 213.82 24.6823 213.561C28.6495 213.362 31.0062 210.606 30.9027 207.149C30.7993 203.692 28.5239 201.401 24.4755 201.239C19.245 201.025 13.9997 201.187 8.56236 201.187ZM8.38505 193.799C10.1507 193.799 11.5322 193.844 12.9137 193.799C16.1347 193.681 19.4075 193.799 22.5694 193.29C25.5245 192.795 28.3762 188.65 28.088 186.087C27.7999 183.523 25.4211 181.868 21.5721 181.757C17.7231 181.647 13.8593 181.669 10.0103 181.757C9.45627 181.757 8.47371 182.577 8.45893 183.05C8.31856 186.523 8.38505 189.973 8.38505 193.807V193.799Z" fill="white"/>
<path d="M71.1507 173.572C85.4754 173.757 95.53 184.129 95.3306 198.424C95.109 211.877 84.1973 222.065 70.3232 221.843C56.4491 221.621 46.1876 211.249 46.3575 197.412C46.5275 183.575 57.2101 173.358 71.1507 173.572ZM86.7387 197.722C86.7387 188.377 79.6982 180.974 70.8478 180.945C61.9973 180.915 54.9273 188.333 54.9273 197.671C54.9273 207.009 61.8865 214.293 70.8699 214.352C79.8534 214.411 86.7609 207.171 86.7387 197.693V197.722Z" fill="white"/>
<path d="M203.427 197.818C203.427 211.545 192.811 221.865 178.79 221.821C164.768 221.777 154.351 211.404 154.462 197.545C154.573 183.686 165.13 173.527 179.166 173.572C193.203 173.616 203.45 183.819 203.427 197.818ZM163.039 197.759C163.039 207.06 170.124 214.33 179.107 214.308C188.091 214.285 195.065 206.861 194.969 197.552C194.88 188.392 187.581 180.878 178.841 180.915C170.102 180.952 163.009 188.414 163.039 197.759Z" fill="white"/>
<path d="M578.568 220.853V188.687L578.043 188.333C577.001 189.341 576.026 190.417 575.125 191.554C569.481 199.68 563.836 207.807 558.318 215.97C555.363 220.314 552.851 221.777 548.839 221.045C547.665 220.831 547.125 220.38 547.133 219.088C547.177 204.568 547.197 190.039 547.192 175.5C547.231 175.288 547.29 175.08 547.369 174.88H554.816V177.399C554.816 186.36 554.816 195.321 554.816 204.283C554.9 205.001 555.066 205.708 555.311 206.388C555.979 206.011 556.589 205.538 557.121 204.984C563.172 196.319 569.215 187.638 575.169 178.899C577.386 175.685 580.06 173.823 584.094 174.407C585.253 174.577 585.807 175.02 585.807 176.328C585.763 190.623 585.807 204.911 585.726 219.176C585.663 219.527 585.513 219.856 585.29 220.133C585.066 220.411 584.777 220.628 584.448 220.765C582.572 220.994 580.651 220.853 578.568 220.853Z" fill="white"/>
<path d="M503.613 207.06C504.677 205.812 505.829 204.637 506.79 203.3C512.463 195.213 518.108 187.104 523.722 178.972C527.047 174.17 528.155 173.727 534.154 174.976V220.624H526.596V218.157C526.596 209.358 526.596 200.552 526.596 191.746C526.494 190.882 526.288 190.034 525.983 189.219C525.258 189.658 524.598 190.198 524.025 190.822C518.174 199.249 512.36 207.708 506.583 216.199C503.716 220.41 501.064 221.895 497.23 220.964C496.58 220.809 495.649 219.871 495.649 219.287C495.56 204.548 495.575 189.803 495.575 174.857H503.059V206.816L503.613 207.06Z" fill="white"/>
<path d="M244.015 201.645H221.962V220.587H213.969V174.909H221.408V193.231H243.808V174.931H251.565V220.853C249.408 220.853 247.258 220.949 245.13 220.764C244.709 220.728 244.074 219.612 244.059 218.984C243.97 214.123 244.007 209.254 244.007 204.393L244.015 201.645Z" fill="white"/>
<path d="M143.903 220.617H136.353V182.312H120.41C119.982 188.857 119.671 195.403 119.058 201.926C118.789 205.228 118.2 208.496 117.3 211.685C114.751 220.38 108.767 223.335 99.8945 220.366L100.39 214.869C107.94 213.938 110.245 211.39 110.814 203.95C111.552 194.346 112.387 184.742 113.2 174.931H143.903V220.617Z" fill="white"/>
<path d="M391.401 250.02C394.688 244.76 397.791 239.898 400.776 234.971C403.132 231.07 405.622 229.703 409.486 230.368C410.638 230.568 411.237 230.959 411.229 232.282C411.185 245.107 411.229 257.932 411.185 270.757C411.145 271.022 411.076 271.283 410.978 271.533H404.824V268.445C404.824 260.953 404.824 253.455 404.824 245.964C404.691 245.283 404.441 244.631 404.085 244.036C403.536 244.344 403.038 244.735 402.608 245.195C399.187 250.153 395.818 255.147 392.428 260.126C392.088 260.621 391.689 261.094 391.157 261.833L379.167 244.235L378.428 244.427V271.584H371.38C371.328 270.742 371.247 269.929 371.247 269.109C371.247 257.134 371.284 245.159 371.195 233.183C371.195 231.225 371.757 230.45 373.715 230.228C377.283 229.814 379.58 231.44 381.361 234.299C384.316 239.012 387.271 243.696 390.278 248.38C390.455 248.764 390.736 249.118 391.401 250.02Z" fill="white"/>
<path d="M316.274 193.711H338.91V200.818H316.525V213.635H342.153V220.55H308.266V174.747H341.931V181.166C341.193 181.203 340.35 181.285 339.545 181.285C332.519 181.285 325.509 181.344 318.468 181.285C316.717 181.285 316.178 181.824 316.252 183.501C316.355 186.825 316.274 190.128 316.274 193.711Z" fill="white"/>
<path d="M487.588 220.395C482.129 222.456 477.349 220.728 474.12 216.11C470.641 211.116 466.858 206.329 463.201 201.46C462.972 201.219 462.725 200.994 462.463 200.788C453.472 204.933 454.742 212.963 454.986 220.735H447.207V174.813H454.728V197.36C455.218 197.069 455.685 196.741 456.124 196.378C461.487 190.733 467.05 185.252 472.133 179.386C475.982 174.909 480.4 173.535 486.406 175.057L467.937 194.472L487.588 220.395Z" fill="white"/>
<path d="M360.904 220.572H353.088C353.051 219.767 352.97 219.021 352.97 218.282C352.97 204.622 353.007 190.948 352.926 177.303C352.926 175.397 353.458 174.747 355.371 174.776C361.85 174.88 368.351 174.532 374.808 174.931C384.619 175.537 390.115 182.836 388.579 192.595C387.33 200.544 381.804 205.095 372.562 205.738C369.334 205.96 366.098 206.166 362.862 206.285C361.385 206.336 360.853 206.898 360.882 208.39C360.971 212.387 360.904 216.421 360.904 220.572ZM361.17 198.025C365.603 198.025 369.844 198.313 374.025 197.937C378.037 197.575 380.393 194.354 380.467 190.157C380.548 186.079 378.11 182.644 374.143 182.282C369.895 181.898 365.581 182.193 361.17 182.193V198.025Z" fill="white"/>
<path d="M437.395 181.019L433.435 185.599C432.931 185.147 432.357 184.781 431.736 184.513C427.207 183.553 422.693 182.511 418.128 181.802C412.75 180.967 409.447 184.432 406.64 188.207C400.109 196.969 405.015 211.205 415.35 213.857C418.889 214.758 422.28 214.042 425.508 212.638C428.116 211.515 430.583 210.067 433.361 208.641C434.617 210.207 435.954 211.855 437.247 213.473C430.598 223.136 413.961 224.739 404.084 216.805C393.335 208.176 392.123 191.199 401.513 181.026C411.627 170.048 428.374 171.976 437.395 181.019Z" fill="white"/>
<path d="M0 230.243H6.40513V264.529H26.2411V230.391H33.3924C33.4515 231.129 33.5549 231.868 33.5549 232.607C33.5549 241.332 33.5549 250.064 33.4367 258.789C33.3924 263.96 33.7618 264.566 38.7189 265.8C38.4382 270.151 38.2092 274.532 37.825 278.906C37.825 279.378 36.968 280.014 36.3992 280.176C35.5584 280.277 34.7101 280.299 33.8652 280.243C32.6019 280.339 32.0404 279.844 31.9961 278.544C31.9444 276.926 31.6193 275.315 31.6267 273.697C31.6341 272.079 30.9471 271.636 29.4104 271.644C20.5452 271.71 11.6799 271.644 2.75561 271.644H0V230.243Z" fill="white"/>
<path d="M457.526 271.599H451.032V269.073C451.032 261.345 451.032 253.618 451.032 245.897C450.896 245.126 450.647 244.38 450.293 243.681C449.613 244.032 448.994 244.491 448.461 245.04C443.117 252.709 437.818 260.407 432.563 268.134C430.671 270.912 428.293 272.567 424.776 272.006C423.594 271.828 423.055 271.341 423.055 270.055C423.089 257.531 423.089 245.013 423.055 232.504C423.055 231.07 423.564 230.575 424.946 230.649C426.327 230.723 427.901 230.649 429.681 230.649V233.309C429.681 241.191 429.681 249.074 429.681 256.949C429.785 257.665 429.992 258.362 430.295 259.018C430.906 258.661 431.464 258.218 431.949 257.703C437.416 249.823 442.854 241.943 448.261 234.062C450.389 230.937 452.842 229.696 456.085 230.45C456.632 230.583 457.444 231.344 457.452 231.824C457.54 245.018 457.526 258.205 457.526 271.599Z" fill="white"/>
<path d="M505.703 265.556L509.294 261.707C512.854 263.185 516.053 265.002 519.496 265.852C527.32 267.787 534.441 262.549 535.283 254.482H517.716C517.575 252.332 517.45 250.374 517.302 248.114H535.32C534.294 239.943 528.125 235.222 520.419 236.84C516.918 237.579 513.578 239.093 509.899 240.342L506.76 236.611C513.408 227.975 527.888 227.14 536.606 234.771C545.752 242.787 546.321 257.851 537.795 266.539C529.27 275.226 514.295 274.997 505.703 265.556Z" fill="white"/>
<path d="M119.519 230.236V271.171H113.025V254.585H93.0782V271.045H86.082V230.457H92.8122V246.85H112.759V234.579C112.759 230.058 112.759 230.051 117.302 230.11C117.982 230.117 118.662 230.184 119.519 230.236Z" fill="white"/>
<path d="M592.286 271.274C587.388 273.343 584.307 271.932 582.926 266.997C581.773 262.889 579.808 261.626 575.642 261.981C573.498 262.176 571.34 262.162 569.2 261.936C562.846 261.234 559.795 263.067 557.926 269.147C557.254 271.363 556.027 272.412 553.715 272.139C552.422 271.991 551.129 271.873 549.504 271.703C549.962 270.587 550.302 269.693 550.686 268.814C555.887 256.95 561.093 245.09 566.304 233.235C567.478 230.568 569.015 229.475 571.711 229.977C573.026 230.221 574.77 231.203 575.28 232.319C581.027 245.033 586.568 257.836 592.16 270.624C592.228 270.835 592.271 271.053 592.286 271.274ZM570.862 238.968L564.065 254.785H577.88L570.862 238.968Z" fill="white"/>
<path d="M45.9219 230.354H75.8051V236.264H53.4056V246.998H73.0421V253.536H53.4204V264.943H76.2262V271.045H45.9367L45.9219 230.354Z" fill="white"/>
<path d="M177.105 271.259H170.301V229.888C177.304 230.139 184.337 229.888 191.238 230.767C198.271 231.676 202.075 237.202 201.942 244.538C201.824 251.401 197.443 256.632 190.565 257.666C186.739 258.164 182.89 258.47 179.033 258.582C177.556 258.656 177.024 259.129 177.061 260.628C177.164 264.086 177.105 267.543 177.105 271.259ZM177.519 236.796V251.815H185.327C185.944 251.824 186.56 251.799 187.174 251.741C191.245 251.283 194.089 248.343 194.222 244.464C194.363 240.453 191.917 237.313 187.721 236.862C184.397 236.508 180.998 236.796 177.519 236.796Z" fill="white"/>
<path d="M469.461 230.147C476.738 230.413 483.926 230.221 490.989 231.078C497.327 231.817 501.154 237.461 501.198 244.324C501.243 251.187 497.394 256.336 490.745 257.622C486.829 258.361 482.796 258.567 478.814 258.996C477.994 259.092 477.166 259.129 476.147 259.21V271.525H469.498L469.461 230.147ZM475.807 252.554C480.432 252.133 484.51 251.992 488.499 251.313C491.772 250.759 493.582 248.166 493.759 244.863C493.936 241.561 492.444 238.887 489.23 237.875C486.658 237.088 484.007 236.582 481.326 236.367C478.437 236.124 476.893 237.291 476.494 240.179C476.021 244.051 476.036 247.981 475.807 252.554Z" fill="white"/>
<path d="M237.321 258.722V271.525H230.672V231.026C237.882 231.026 244.989 230.546 252 231.166C258.354 231.728 262.173 236.855 262.402 243.386C262.653 250.773 259.026 256.129 252.192 257.622C248.498 258.434 244.561 258.397 240.727 258.708C239.744 258.789 238.71 258.722 237.321 258.722ZM237.321 252.598C241.665 252.162 245.669 251.97 249.592 251.305C252.591 250.788 254.409 248.594 254.911 245.594C255.339 243.001 254.741 240.49 252.37 239.101C248.664 236.977 244.362 236.133 240.128 236.7C239.377 236.715 238.663 237.028 238.142 237.57C237.621 238.111 237.337 238.837 237.35 239.588C237.269 243.755 237.336 247.87 237.336 252.62L237.321 252.598Z" fill="white"/>
<path d="M305.438 231.078C310.129 229.127 313.638 230.553 315.958 235.037C318.913 240.726 321.868 246.37 324.897 252.029C325.251 252.694 325.672 253.329 326.241 254.282C326.98 252.805 327.623 251.615 328.214 250.382C330.674 245.21 333.097 240.039 335.601 234.941C337.884 230.235 339.665 229.467 345.095 230.915C344.622 232.038 344.223 233.168 343.684 234.232C338.623 244.376 333.658 254.571 328.413 264.61C324.306 272.464 317.575 274.628 309.479 271.119C309.122 270.941 308.777 270.741 308.444 270.521C308.644 269.944 308.873 269.457 308.991 268.947C309.589 266.354 311.015 265.357 313.638 266.376C314.235 266.534 314.855 266.584 315.47 266.524C320.538 266.524 322.776 262.904 320.42 258.442C318.063 253.98 315.706 249.769 313.335 245.439C310.705 240.662 308.072 235.875 305.438 231.078Z" fill="white"/>
<path d="M298.5 174.909V181.558H284.212V220.558H276.159V182.142H261.672V174.902L298.5 174.909Z" fill="white"/>
<path d="M287.822 271.518H280.546V237.032H267.418C267.277 234.897 267.144 233.013 267.004 230.937H300.699C300.78 232.821 300.869 234.705 300.973 236.929C297.375 236.929 294.006 237.054 290.63 236.877C288.413 236.759 287.726 237.357 287.756 239.647C287.882 249.37 287.808 259.092 287.808 268.814L287.822 271.518Z" fill="white"/>
<path d="M161.319 230.509V236.168H148.878V271.304C146.765 271.385 144.649 271.353 142.539 271.208C142.118 271.163 141.527 269.871 141.527 269.154C141.461 259.343 141.475 249.54 141.475 239.729V236.685H128.547V230.509H161.319Z" fill="white"/>
<path d="M556.602 159.868C559.224 161.279 561.426 162.328 563.48 163.606C565.94 165.128 567.801 165.083 570.328 163.451C572.034 162.335 573.889 161.456 575.876 160.37C576.083 165.903 572.633 170.085 567.986 170.476C561.802 171.001 557.54 167.285 556.602 159.868Z" fill="white"/>
<path d="M315.698 169.789C318.297 169.789 320.404 167.682 320.404 165.083C320.404 162.484 318.297 160.377 315.698 160.377C313.099 160.377 310.992 162.484 310.992 165.083C310.992 167.682 313.099 169.789 315.698 169.789Z" fill="white"/>
<path d="M335.093 169.789C337.692 169.789 339.799 167.682 339.799 165.083C339.799 162.484 337.692 160.377 335.093 160.377C332.494 160.377 330.387 162.484 330.387 165.083C330.387 167.682 332.494 169.789 335.093 169.789Z" fill="white"/>
</svg>
