<svg width="72" height="72" viewBox="0 0 72 72" fill="none" xmlns="http://www.w3.org/2000/svg">
<path d="M24.0024 36C24.0024 34.4241 24.3128 32.8635 24.9159 31.4076C25.5191 29.9516 26.4031 28.6287 27.5175 27.5143C28.6319 26.3999 29.9549 25.516 31.4109 24.9129C32.867 24.3098 34.4276 23.9994 36.0036 23.9994C37.5796 23.9994 39.1402 24.3098 40.5963 24.9129C42.0523 25.516 43.3753 26.3999 44.4897 27.5143C45.6041 28.6287 46.4881 29.9516 47.0913 31.4076C47.6944 32.8635 48.0048 34.4241 48.0048 36C48.0048 39.1828 46.7404 42.2352 44.4897 44.4857C42.2391 46.7363 39.1865 48.0006 36.0036 48.0006C32.8207 48.0006 29.7681 46.7363 27.5175 44.4857C25.2668 42.2352 24.0024 39.1828 24.0024 36ZM17.5149 36C17.5149 38.4276 17.9931 40.8315 18.9221 43.0743C19.8512 45.3171 21.2129 47.355 22.9296 49.0716C24.6462 50.7882 26.6842 52.1498 28.9272 53.0788C31.1701 54.0078 33.5741 54.486 36.0018 54.486C38.4295 54.486 40.8335 54.0078 43.0764 53.0788C45.3194 52.1498 47.3574 50.7882 49.074 49.0716C50.7907 47.355 52.1524 45.3171 53.0815 43.0743C54.0105 40.8315 54.4887 38.4276 54.4887 36C54.4887 31.0972 52.541 26.3952 49.074 22.9284C45.6071 19.4616 40.9048 17.514 36.0018 17.514C31.0988 17.514 26.3965 19.4616 22.9296 22.9284C19.4626 26.3952 17.5149 31.0972 17.5149 36M50.8993 16.7832C50.8993 17.6376 51.1527 18.4728 51.6274 19.1833C52.1021 19.8937 52.7769 20.4474 53.5663 20.7744C54.3557 21.1013 55.2244 21.1869 56.0624 21.0202C56.9004 20.8535 57.6702 20.4421 58.2744 19.8379C58.8786 19.2337 59.2901 18.464 59.4568 17.626C59.6235 16.788 59.5379 15.9194 59.2109 15.13C58.8839 14.3406 58.3302 13.6659 57.6197 13.1913C56.9093 12.7166 56.074 12.4632 55.2196 12.4632C54.0738 12.4632 52.9749 12.9183 52.1647 13.7285C51.3545 14.5387 50.8993 15.6375 50.8993 16.7832M21.4571 65.304C17.9469 65.142 16.0388 64.5588 14.7715 64.0656C13.2077 63.4884 11.793 62.5683 10.6313 61.3728C9.43575 60.2112 8.51558 58.7966 7.9384 57.2328C7.44157 55.9656 6.85834 54.0576 6.69994 50.5476C6.52353 46.7532 6.49112 45.6156 6.49112 36.0036C6.49112 26.3916 6.52713 25.2504 6.69994 21.4524C6.85834 17.9424 7.44877 16.038 7.9384 14.7672C8.59003 13.086 9.37127 11.8872 10.6313 10.6272C11.8914 9.3672 13.0867 8.586 14.7715 7.9344C16.0388 7.4376 17.9469 6.8544 21.4571 6.696C25.2517 6.516 26.3893 6.48 36.0018 6.48C45.6143 6.48 46.7519 6.516 50.5501 6.6924C54.0603 6.8508 55.9648 7.4412 57.2357 7.9308C58.9169 8.5788 60.1158 9.3636 61.3759 10.6236C62.6359 11.8836 63.4172 13.0824 64.0724 14.7636C64.5656 16.0308 65.1525 17.9388 65.3073 21.4488C65.4837 25.2468 65.5197 26.3808 65.5197 35.9964C65.5197 45.6084 65.4837 46.746 65.3073 50.544C65.1489 54.054 64.562 55.962 64.0724 57.2292C63.4952 58.793 62.575 60.2076 61.3795 61.3692C60.2178 62.5647 58.8031 63.4848 57.2393 64.062C55.9684 64.5552 54.0603 65.142 50.5501 65.3004C46.7555 65.4732 45.6179 65.5092 36.0018 65.5092C26.3893 65.5092 25.2517 65.4732 21.4571 65.3004M21.1583 0.216C17.3277 0.3924 14.7067 1.0008 12.4206 1.89C10.0174 2.79294 7.84023 4.2095 6.0411 6.0408C4.20971 7.83984 2.79308 10.0169 1.89009 12.42C1.00085 14.7096 0.39242 17.3268 0.219611 21.1572C0.0360022 24.9948 0 26.2224 0 36C0 45.7776 0.0396018 47.0052 0.216011 50.8428C0.392419 54.6732 1.00085 57.2904 1.89009 59.58C2.79354 61.9818 4.21015 64.1576 6.0411 65.9556C7.83987 67.7882 10.0171 69.206 12.4206 70.11C14.7103 70.9992 17.3277 71.6076 21.1583 71.7804C24.9996 71.9568 26.2237 72 36.0018 72C45.7799 72 47.0075 71.9604 50.8453 71.784C54.6759 71.6076 57.2933 70.9992 59.583 70.11C61.9852 69.2055 64.1612 67.7878 65.9589 65.9556C67.7907 64.159 69.2085 61.9845 70.1135 59.5836C71.0027 57.2904 71.6148 54.6732 71.784 50.8428C71.9604 47.0016 72 45.7776 72 36C72 26.2224 71.9604 24.9948 71.784 21.1572C71.6112 17.3268 71.0027 14.706 70.1135 12.42C69.2095 10.0166 67.7916 7.83948 65.9589 6.0408C64.1619 4.21038 61.9872 2.79386 59.5866 1.89C57.2933 1.0008 54.6759 0.3888 50.8489 0.2196C47.0076 0.0432004 45.7835 0 36.0018 0C26.2201 0 24.996 0.0395998 21.1547 0.216" fill="#FFF4B2"/>
</svg>
