<svg width="63" height="72" viewBox="0 0 63 72" fill="none" xmlns="http://www.w3.org/2000/svg">
<path d="M23.9445 27.072C22.7295 26.262 18.6975 23.463 18.6975 23.463C22.0995 18.5985 26.586 16.704 32.7915 16.704C37.179 16.704 40.905 18.1755 43.5645 20.97C46.224 23.7645 47.7405 27.7605 48.087 32.868C49.563 33.489 50.9205 34.215 52.1595 35.046C57.15 38.3985 59.895 43.416 59.895 49.1625C59.895 61.3845 49.878 72 31.743 72C16.173 72 0 62.9415 0 35.973C0 9.153 15.669 0 31.698 0C39.105 0 56.475 1.0935 63 22.662L56.88 24.2505C51.822 8.883 41.2335 6.435 31.527 6.435C15.4845 6.435 6.408 16.2045 6.408 36.99C6.408 55.6335 16.551 65.5335 31.743 65.5335C44.2395 65.5335 53.5545 59.04 53.5545 49.5315C53.5545 43.0605 48.1185 39.96 47.8395 39.96C46.7775 45.513 43.9335 54.855 31.4415 54.855C24.1605 54.855 17.883 49.824 17.883 43.236C17.883 33.831 26.811 30.4245 33.858 30.4245C36.495 30.4245 39.681 30.6045 41.3415 30.9375C41.3415 28.071 38.9115 23.1615 32.7915 23.1615C27.1665 23.1615 25.7445 24.984 23.94 27.0675L23.9445 27.072ZM34.722 36.855C25.542 36.855 24.354 40.77 24.354 43.227C24.354 47.178 29.0475 48.483 31.554 48.483C36.144 48.483 40.8555 47.214 41.598 37.5795C39.3449 37.0538 37.0352 36.8105 34.722 36.855Z" fill="#FFF4B2"/>
</svg>
