<svg width="1920" height="1080" viewBox="0 0 1920 1080" fill="none" xmlns="http://www.w3.org/2000/svg">
<rect width="1920" height="1080" fill="#153B2B"/>
<path d="M518.068 564.719H533.113V605.785H499.58V589.511H424.421V605.785H391V564.719H403.273C408.639 554.458 409.778 537.422 409.778 496.355H518.068V564.719ZM1513.98 564.719H1529V605.785H1495.47V589.511H1420.33V605.785H1386.91V564.719H1399.18C1404.57 554.458 1405.69 537.422 1405.69 496.355H1513.98V564.719ZM823.698 495.601C833.767 495.601 840.839 504.173 840.839 513.353V571.849C840.839 581.028 833.767 589.6 823.698 589.601H571.979C561.911 589.6 554.839 581.028 554.839 571.849V513.353C554.839 504.173 561.911 495.601 571.979 495.601H823.698ZM942.396 548.689L971.457 496.355H1018.22V589.511H983.082V531.387L950.421 589.511H932.269L899.719 531.387V589.511H865.046V496.355H913.87L942.396 548.689ZM1127.52 521.147H1064.72V589.511H1029.16V496.355H1127.52V521.147ZM1214.06 496.355C1248.48 496.355 1258.25 510.015 1258.25 527.161V529.174C1258.25 546.074 1248.1 560.337 1214.06 560.337H1172.01V589.511H1136.44V496.355H1214.06ZM1384.56 589.511H1345.64L1338.38 574.487H1285.17L1278.04 589.511H1241.98L1288.05 496.355H1335.87L1384.56 589.511ZM572.839 571.601H822.839V513.601H572.839V571.601ZM441.836 521.147C441.836 539.814 440.204 556.917 436.202 564.719H482.501V521.147H441.836ZM1437.75 521.147C1437.75 539.814 1436.11 556.917 1432.11 564.719H1478.43V521.147H1437.75ZM1296.06 551.193H1326.97L1311.33 519.158L1296.06 551.193ZM790.713 532.931C795.683 532.931 799.713 536.96 799.713 541.931C799.713 546.901 795.683 550.931 790.713 550.931C785.742 550.931 781.713 546.901 781.713 541.931C781.713 536.96 785.742 532.931 790.713 532.931ZM1172.01 537.043H1209.81C1217.95 537.043 1221.57 533.667 1221.57 528.548V528.101C1221.57 522.713 1218.19 519.583 1209.81 519.583H1172.01V537.043ZM824.694 474C828.398 474 831.401 477.003 831.401 480.707C831.401 484.411 828.398 487.414 824.694 487.414H569.843C566.139 487.414 563.137 484.411 563.137 480.707C563.137 477.003 566.139 474 569.843 474H824.694Z" fill="url(#paint0_linear_20_674)"/>
<path d="M1310 478.157V496M1310 477.843C1310 468.907 1303.37 461.506 1294.73 460.203C1293.28 459.985 1292 461.084 1292 462.547C1292 471.481 1298.62 478.879 1307.27 480.186C1308.72 480.405 1310 479.304 1310 477.838M1310 477.838C1310 468.905 1316.63 461.504 1325.27 460.202C1326.72 459.984 1328 461.084 1328 462.547C1328 471.481 1321.38 478.879 1312.73 480.186C1311.28 480.405 1310 479.304 1310 477.838Z" stroke="#00BF8F" stroke-width="7" stroke-linecap="round" stroke-linejoin="round"/>
<defs>
<linearGradient id="paint0_linear_20_674" x1="391" y1="539.893" x2="1529" y2="539.893" gradientUnits="userSpaceOnUse">
<stop stop-color="#009972"/>
<stop offset="0.362845" stop-color="#00BF8F"/>
</linearGradient>
</defs>
</svg>
